<?xml version="1.0" encoding="UTF-8" standalone="no"?>
<svg width="487px" height="446px" viewBox="0 0 487 446" version="1.1" xmlns="http://www.w3.org/2000/svg" xmlns:xlink="http://www.w3.org/1999/xlink">
    <!-- Generator: Sketch 42 (36781) - http://www.bohemiancoding.com/sketch -->
    <title>Banner Illustration</title>
    <desc>Created with Sketch.</desc>
    <defs></defs>
    <g id="Page-1" stroke="none" stroke-width="1" fill="none" fill-rule="evenodd">
        <g id="Banner-Illustration">
            <g id="practo-illustrations-08">
                <path d="M376.83,258.6 C375.55,256.32 367.98,249.35 365.63,250.38 C363.28,251.41 365.98,255.69 365.98,255.69 L370.74,261.55 C370.74,261.55 366.81,259.76 366.32,260.55 C365.83,261.34 365.56,262.48 367.49,263.44 C369.42,264.4 376.35,267.57 376.58,267.16 C377.09,266.19 377.27,259.39 376.83,258.6 Z" id="Shape" fill="#F5AD77" fill-rule="nonzero"></path>
                <path d="M134.67,162 C134.67,162 107.12,161.21 94.75,160.5 C74.51,159.34 40.75,159.36 40.75,159.36 C40.75,159.36 34.92,64 42.13,51.79 C49.18,39.79 136.67,46.5 136.67,46.5 C136.67,46.5 136.42,79 135.51,81.19 C134.72,83.08 114.51,79.69 113.71,102.82 C112.71,131.25 131.4,123.53 135.01,122.5 C138.62,121.47 134.67,162 134.67,162 Z" id="Shape" fill="#FFA000" fill-rule="nonzero"></path>
                <path d="M219.34,157.5 C220.34,158.97 269.01,166 273.34,159.84 C275.74,156.43 260,137.84 278,134.34 C301.69,129.73 283.68,153.72 287.33,159.51 C290.98,165.3 315.86,159.37 315.86,159.37 C315.86,159.37 321.76,64.05 314.41,51.8 C307.22,39.8 219.25,46.68 219.25,46.68 C219.25,46.68 216.54,83.25 221.67,84.85 C227,86.5 244.91,71.42 246.21,102 C247.67,136.47 220.97,115.2 218.31,116.07 C214.8,117.25 216.79,153.8 219.34,157.5 Z" id="Shape" fill="#FFA000" fill-rule="nonzero"></path>
                <path d="M134.88,46.66 C134.88,46.66 187.67,48 209.15,47 C211.76,46.88 217.1,45 219.58,47.44 C221.51,49.35 220.58,60.65 220.01,65.02 C219.47,69.56 220.26,81.91 222.5,83.15 C224.58,84.29 233.32,76.74 241.67,83.53 C245.41,86.53 247.35,90.21 247.67,99.7 C247.99,109.19 247.15,124.54 234.5,123.87 C225.17,123.37 222.57,117.78 219,118.87 C217.16,119.43 218.07,136.79 218.5,143.04 C218.76,146.85 220.58,158.04 219.25,158.26 C216.13,158.85 189.66,165.38 189.87,158.85 C190.13,150.37 194.3,137.09 178.81,138.23 C158.81,139.7 167.04,155.23 166.34,158.23 C164.5,166 133.51,161.9 133.51,161.9 L134.88,124.13 C134.88,124.13 113.58,134.32 112.02,106.65 C110.67,82.65 127.44,81.34 128.24,81.15 C130.110927,80.731516 132.014826,80.4772167 133.93,80.39 L134.88,46.66 Z" id="Shape" fill="#FFA000" fill-rule="nonzero"></path>
                <path d="M40.53,156.29 C38.53,156.21 38.67,265.67 38.67,265.67 C38.67,265.67 69.84,261 73,267.51 C75.13,271.88 67.77,273 68.67,285.18 C69.34,294.18 80.74,297.4 85.51,297.85 C90.84,298.35 102.51,293.18 103.84,282.35 C105.23,271.08 97.68,269.17 98.17,265.18 C98.56,262.03 108.46,262.06 115.17,263.01 C131.08,265.29 134.5,264.17 134.5,264.17 C134.5,264.17 132.07,227.79 135,224.34 C136.61,222.44 139.63,226.26 144,226.8 C151.59,227.72 157.58,217.7 157.62,212.34 C157.7,202.47 152.84,195.03 147.79,193.51 C142.74,191.99 137.91,195.76 135.46,193.89 C128.6,188.64 135.12,160.17 135.12,160.17 L40.53,156.29 Z" id="Shape" fill="#FFA000" fill-rule="nonzero"></path>
                <path d="M219,157.17 C217.27,156.08 207,158.34 202.67,159.34 C198.67,160.26 193.1,161.39 191.61,158.84 C189.71,155.58 194.48,146.48 190.5,141.17 C186.52,135.86 180.67,135.69 176.88,136.17 C173.09,136.65 164.37,138.3 164.01,148.29 C163.65,158.28 166.01,157.29 163.66,159.08 C157.66,163.63 133.66,159.95 133.66,159.95 C133.66,159.95 130.66,173.45 130.99,182.12 C131.2,187.48 131.79,192.78 134.91,195.45 C139.56,199.45 148.23,186.17 154.66,205.2 C158.99,218.03 149.77,225.09 145.1,225.04 C138.5,224.96 137.63,220.98 135.41,221.95 C130.83,223.95 131.36,242.4 132.16,249.28 C132.637961,253.039869 132.811858,256.832167 132.68,260.62 L133.29,264.03 C133.29,264.03 161.58,263.33 172.16,264.03 C183.41,264.78 216.56,265.78 220.67,266.45 C224.78,267.12 221.15,196.45 220.52,190.45 C219.89,184.45 223.19,159.81 219,157.17 Z" id="Shape" fill="#FFA000" fill-rule="nonzero"></path>
                <path d="M392.77,269.51 C390.29,267.96 372.94,271.12 368.84,271.15 C364.74,271.18 354.73,275.47 353.02,271.9 C351.02,267.72 360.92,263.25 355.39,253.54 C352.1,247.77 345.71,246.72 341.92,247.25 C338.13,247.78 328.39,249.02 327.92,259 C327.55,266.9 333.65,268.21 332.48,271.15 C328.97,279.98 301.35,265.33 294.48,271.9 C291.38,274.9 292.48,279.5 294.16,289.58 C295.16,295.45 294.92,311.42 297.16,314.41 C300.99,319.55 316.42,302.5 322.92,325.02 C327.22,339.93 317.42,348.17 314.84,349.7 C308.42,353.51 302.02,345.15 298.29,347.57 C296.05,349.03 297.29,351.76 298.1,358.65 C298.598691,362.557538 298.551574,366.515442 297.96,370.41 C297.96,370.41 294.9,401.41 297.15,404.15 C300.91,408.75 331.23,406.4 341.66,404.5 C352.09,402.6 401.82,404.02 404.83,399.5 C408.21,394.5 395.46,316.3 394.83,310.23 C394.2,304.16 395.85,271.43 392.77,269.51 Z" id="Shape" fill="#FFA000" fill-rule="nonzero"></path>
                <path d="M316,157.83 C316,157.83 291.19,163.61 288.88,159.35 C285.88,153.86 292.05,151 292.05,140.5 C292.05,129.42 280.44,132.56 277.77,132.8 C273.72,133.17 267.57,134.94 267.29,143.67 C267.01,152.4 273.29,156.85 271.76,158.84 C267.29,164.51 219.93,156.33 219.93,156.33 C219.93,156.33 218.15,157.74 219.05,164.84 C219.95,171.94 217.8,196.7 218.88,202.67 C220.21,210 219.97,266.53 219.97,266.53 C219.97,266.53 240.42,263.74 249.08,264.67 C252.013945,265.043517 254.992523,264.843134 257.85,264.08 C257.794821,262.148834 257.475179,260.234347 256.9,258.39 C255.64,255.18 251.75,238.29 268.26,238.66 C285.36,239.04 282.49,251.53 280.92,254.6 C278.35,259.6 275.86,264.83 278.39,264.83 L301.77,264.83 C301.77,264.83 316.46,266.53 318.14,264.83 C322.43,260.46 316,157.83 316,157.83 Z" id="Shape" fill="#FFA000" fill-rule="nonzero"></path>
                <path d="M38.72,264.17 C38.72,264.17 35,341.82 33.8,351.25 C30.48,378 27.63,388.15 33.8,398.11 C38.71,406.05 134.87,398.11 134.87,398.11 C134.87,398.11 145.13,355.17 135.04,348.42 C130.31,345.26 115.21,356.42 110.04,345.08 C105,334 108,327.15 108.71,324.92 C111.76,315.81 119.45,314.03 123.54,313.59 C126.65,313.26 136.08,313.24 137.01,310.85 C140.84,301.02 135.01,272.44 134.18,263.52 C134.03,261.99 98.72,257.94 97.05,263.77 C94.53,272.59 111.76,278.38 95.05,292.94 C84.72,301.94 70.77,291.18 70.31,284.3 C69.68,275.03 76.65,270.18 74.09,266.39 C69.11,259 38.72,264.17 38.72,264.17 Z" id="Shape" fill="#FFA000" fill-rule="nonzero"></path>
                <path d="M216.1,264.08 C216.1,264.08 181.35,263.15 173.18,262.33 C169.85,262 137.33,260.67 133.68,263.33 C130.86,265.38 134.96,280.27 135.34,286.16 C135.75,292.41 139.66,307.03 134.34,310.33 C130.34,312.83 118.17,308.49 110.34,317.77 C103.44,325.93 105.34,334.32 105.95,339.16 C106.86,345.95 111.8,351.39 116.69,352.33 C121.58,353.27 131.38,347.47 134.86,350 C143.36,356.17 132.71,398 132.71,398 C132.71,398 167.52,396.1 181.15,396.1 C194.78,396.1 206.76,395.47 215.94,396.97 C217.72,397.26 224.66,398.04 225.86,396.07 C230.43,388.54 214.94,342.72 222.52,340.89 C226.82,339.89 224.36,344.54 236.21,344.54 C248.06,344.54 250.21,329.75 250.21,322.47 C250.21,317.47 249.21,302.97 235.39,303.05 C229.2,303.05 224.85,309.05 222.54,307.31 C218.15,303.97 219.86,264.8 219.86,264.8 L216.1,264.08 Z" id="Shape" fill="#FFA000" fill-rule="nonzero"></path>
                <path d="M445.13,226.08 C445.13,226.08 435.08,229.08 427.74,234.72 C420.4,240.36 417.62,243.72 414.09,246.14 C409.65,249.14 405.69,251.01 394.51,253.82 C378.96,257.73 377.51,255.51 376.43,257.51 C376.43,257.51 375.21,266.51 376.19,268.51 C376.87,269.9 393.45,266.13 402.46,264.58 C417.68,261.98 427.18,254.73 427.18,254.73 L427,277.12 L423,316.63 C423,316.63 418,344.74 418.72,345.87 C419.9,347.8 426.2,351.63 432.06,352.38 C437.92,353.13 443.51,353.86 444.68,353.38 C445.85,352.9 445.82,308.29 445.82,308.29 L448.14,281 L444.34,265 C444.34,265 443.34,250.83 437.05,249.21 C435.93,248.92 439.29,246.5 439.11,245.84 C438.62,243.96 435.05,242.34 435.05,242.34 C435.05,242.34 438.98,234.25 440.61,231.72 C441.57,230.2 445.13,226.08 445.13,226.08 Z" id="Shape" fill="#4BC1F2" fill-rule="nonzero"></path>
                <path d="M447.52,224.1 C444.205963,225.816245 441.477016,228.479057 439.68,231.75 C437.68232,235.225775 435.889269,238.815215 434.31,242.5 L438.37,245.95 L435.81,249.5 C437.345417,249.714984 438.771689,250.415855 439.88,251.5 C441.53,253.22 443.88,265.5 443.88,265.5 L446.63,262.7 C446.63,262.7 445.17,236.88 445.17,234.03 C445.187633,231.730066 445.883333,229.486435 447.17,227.58 L447.52,224.1 Z" id="Shape" fill="#4BC1F2" fill-rule="nonzero"></path>
                <path d="M463.89,221.77 C463.41,219.91 468.54,224.1 469.27,227.25 C470.61,233.09 466.27,238.1 466.27,238.1 L452.64,255.36 L449.48,259.36 C449.48,259.36 455.19,246.63 456.48,244.1 C459.64,238.02 463.59,231.22 464.24,226.45 C464.477226,224.883547 464.357583,223.283743 463.89,221.77 L463.89,221.77 Z" id="Shape" fill="#4BC1F2" fill-rule="nonzero"></path>
                <path d="M468.48,229.75 C468.02,232.9 467.93,234.75 462.42,242.38 C451.89,257 454.53,269.89 455.25,279.26 C456.25,291.86 454.25,328.01 454.25,328.01 C454.25,328.01 452.32,347.7 456.25,351.85 C459.41,355.22 467.78,354.61 475.5,351.85 C483.22,349.09 485.07,350.33 486.06,347.67 C487.25,344.5 483.44,317.04 483.44,317.04 C483.44,317.04 481.65,286.84 481.72,283.53 C481.79,280.22 482.13,263.4 482.72,252.53 C483.31,241.66 483.25,238.12 481.03,234.46 C478.81,230.8 474.43,227.74 470.94,226.1 C469.66,225.5 467.59,224.5 467.59,224.5 C468.307088,226.15221 468.612494,227.953766 468.48,229.75 Z" id="Shape" fill="#4BC1F2" fill-rule="nonzero"></path>
                <path d="M409.84,287.84 C406.84,284.44 398.28,282.68 395.78,283.24 C391.38,284.24 393.24,288.67 394.22,289.57 C396.69,291.85 404.92,293.77 404.92,293.77 C404.92,293.77 401.4,294.59 400.92,295.34 C400.44,296.09 400.5,297.51 402.45,297.05 C404.55,296.55 411.34,298.82 411.97,297.59 C412.6,296.36 410.3,288.37 409.84,287.84 Z" id="Shape" fill="#F5AD77" fill-rule="nonzero"></path>
                <path d="M456.76,304.91 C456.53,304.46 453.45,305.7 450.45,305.36 C447.72,305.05 445.06,303.1 444.71,304.05 C444.40988,306.540993 444.40988,309.059007 444.71,311.55 C445.14,312.85 448.89,313.73 449.12,314.83 C451.17,324.83 448.96,355.38 450.2,366.55 C451.44,377.72 449.74,429.5 449.74,429.5 C449.74,429.5 451.97,428.36 455.74,430.02 C459.51,431.68 460.32,439.84 472.47,436.95 C476,436.11 478.47,435.31 478.88,433.54 C479.04,432.84 478.35,432.23 478.26,430.75 C478.03,426.84 478.36,384.24 478.36,384.24 C478.36,384.24 479.69,349.05 478.15,349.73 C475.98,350.73 463.4,354.16 458.32,351.86 C452.19,349.06 458.13,307.64 456.76,304.91 Z" id="Shape" fill="#4BC1F2" fill-rule="nonzero"></path>
                <path d="M432.36,350.85 C431.1,352.21 432.36,365.85 432.36,370.48 C432.36,374.48 430.62,389.79 430.73,394.35 C430.84,398.91 429.68,427.26 429.68,427.26 C429.68,427.26 433.45,425.07 436.45,425.89 C439.45,426.71 439.81,429.09 440.45,429.89 C441.09,430.69 442.11,432.27 443.97,432.37 C444.865314,432.439656 445.764686,432.439656 446.66,432.37 L451.09,429.14 C451.09,429.14 451.77,395.57 451.74,389.65 C451.74,382.27 452.6,368.29 451.54,359.32 C450.28,348.63 453.84,323.65 449.13,313.13 C448.66,312.08 445.33,311.19 444.85,312.41 C443.98,314.66 445.34,345.81 443.69,351.36 C442.86,354.09 433.17,350 432.36,350.85 Z" id="Shape" fill="#4BC1F2" fill-rule="nonzero"></path>
                <path d="M429.67,427.25 C424.26,429.25 420.27,431.25 421.93,437.56 C422.93,441.34 431.73,439.66 435.26,438.5 C437.73,437.69 446.14,433.5 443.18,431.75 C440.69,430.26 439.93,424.33 434.89,425.16 C433.110969,425.754921 431.368028,426.452765 429.67,427.25 Z" id="Shape" fill="#14AA9B" fill-rule="nonzero"></path>
                <path d="M449.73,429.5 C449.73,429.5 442.28,435.29 444.97,438.71 C447.66,442.13 454.38,440.16 454.38,440.16 C454.38,440.16 464.38,437.29 463.92,436.43 C461.962728,434.222663 459.821717,432.185358 457.52,430.34 C453.17,427.25 449.73,429.5 449.73,429.5 Z" id="Shape" fill="#14AA9B" fill-rule="nonzero"></path>
                <polygon id="Shape" fill="#FF2D00" fill-rule="nonzero" points="168.47 64 170.3 1.59 181.32 0 181.32 61.62"></polygon>
                <polygon id="Shape" fill="#C80001" fill-rule="nonzero" points="203.17 25.31 145.89 28.66 144.25 39.49 205.17 36.82"></polygon>
                <path d="M199,307 C198.12,306 167.46,308.38 166,310.63 C164.21,313.42 164.67,397.13 166.41,399.94 C168.93,404 200.04,403.77 202.19,401.71 C204.34,399.65 200.57,308.73 199,307 Z" id="Shape" fill="#FF2D00" fill-rule="nonzero"></path>
                <path d="M454.63,233.53 C460.42,233.53 465.12,228.14 464.79,225.75 C464.17,221.25 462.72,214.64 462.72,214.64 C462.72,214.64 462.51,214.75 461.72,214.64 C461.13,214.53 460.53,214.45 460.29,213.51 C460.018208,211.820074 459.877787,210.111625 459.87,208.4 C460.703619,208.300144 461.531424,208.156613 462.35,207.97 C463.73,207.49 464.35,205.88 464.49,204.55 C464.91,200.7 463.91,199.55 462.73,198.96 C458.66,196.96 459.2,203.05 456.62,201.54 C455.18,200.7 456.2,194.09 453.56,190.49 C451.87,188.18 445.29,186.37 442.37,186.77 C440.727475,187.053573 439.181149,187.740829 437.87,188.77 C436.37,190.35 435.16,194.19 435.44,197.11 C435.72,200.03 434.74,199.05 434.26,198.85 C433.05,198.35 430.26,198.46 430.37,202.35 C430.48,206.24 431.83,206.71 434.08,206.5 C436.33,206.29 436.48,207.5 436.48,207.5 L436.41,210.09 C437.628852,210.170719 438.852886,210.117062 440.06,209.93 C441.77,209.57 442.43,207.44 443.26,207.93 C444.4,208.57 442.32,211.08 440.16,212.12 C439.076073,212.758152 437.757576,212.857871 436.59,212.39 C436.59,212.39 436.27,217.75 438.77,218.73 C441.27,219.71 447.89,217.73 448.5,218.73 C449.29,220.05 446.5,225.2 447.11,227.53 C447.94,230.39 449.48,233.54 454.63,233.53 Z" id="Shape" fill="#FFCCA6" fill-rule="nonzero"></path>
                <ellipse id="Oval" fill="#603913" fill-rule="nonzero" cx="441.4" cy="196.67" rx="1.02" ry="1.14"></ellipse>
                <path d="M473.63,234.12 C471.27,234.63 468.63,233.2 456.83,249.67 C445.03,266.14 440.9,268.22 434.63,272.15 C428.36,276.08 427.05,276.35 427.05,276.35 L425.33,293.75 C432.298762,291.233244 438.910822,287.821327 445,283.6 C455.62,276.36 470.72,260.3 470.72,260.3 C470.72,260.3 480.44,251.13 481.72,242.65 C483,234.17 478.67,234.24 477.66,233.93 C476.31852,233.704692 474.944332,233.76948 473.63,234.12 L473.63,234.12 Z" id="Shape" fill="#4BC1F2" fill-rule="nonzero"></path>
                <path d="M427.05,276.36 L425.33,293.76 C425.33,293.76 413.91,299.76 412.61,299.14 C410.38,298.14 408.78,286.93 409.25,285.33 C409.77,283.58 427.05,276.36 427.05,276.36 Z" id="Shape" fill="#4BC1F2" fill-rule="nonzero"></path>
                <path d="M464.09,227.54 C461.99255,231.028389 458.156763,233.092043 454.09,232.92 C447.89,232.78 447.22,226.49 447.22,226.49 C445.75135,228.649793 444.888096,231.163588 444.72,233.77 C444.39,238.24 446.34,262.97 446.34,262.97 L450.34,258.31 L457.53,243.11 L462.28,233.77 C463.221351,231.819351 464.049393,229.816023 464.76,227.77 C464.804111,226.970608 464.804111,226.169392 464.76,225.37 L464.09,227.54 Z" id="Shape" fill="#FFFFFF" fill-rule="nonzero"></path>
                <path d="M456.08,275.43 C456.08,275.43 456.76,285.12 456.83,288.56 C456.91,292.56 457.33,303.94 456.73,305.26 C455.54,307.85 445.35,304.51 445.35,304.51 L447.29,282.01 L456.08,275.43 Z" id="Shape" fill="#FFFFFF" fill-rule="nonzero"></path>
                <path d="M422.67,278.88 C422.67,278.88 435.92,273.26 443.05,266.63 C447.4,262.63 457.66,250.31 461.43,244.26 C463.31,241.26 473.18,230.14 478.43,234.26" id="Shape" stroke="#4BC1F2" stroke-width="0.75" stroke-linecap="round" stroke-linejoin="round"></path>
                <path d="M432.5,290.17 C432.5,290.17 476.83,267.67 480.67,240.17" id="Shape" stroke="#4BC1F2" stroke-width="0.75" stroke-linecap="round" stroke-linejoin="round"></path>
                <path d="M429.17,251.84 C429.17,251.84 426.5,256.34 409.5,262.17" id="Shape" stroke="#4BC1F2" stroke-width="0.75" stroke-linecap="round" stroke-linejoin="round"></path>
                <path d="M381.87,257.7 C385.87,257.28 393.62,256.44 396.18,255.25" id="Shape" stroke="#FFFFFF" stroke-width="0.75" stroke-linecap="round" stroke-linejoin="round"></path>
                <path d="M379.67,258 L380.12,258" id="Shape" stroke="#FFFFFF" stroke-width="0.75" stroke-linecap="round" stroke-linejoin="round"></path>
                <path d="M412.17,285.75 C413.274193,284.811839 414.54683,284.092375 415.92,283.63" id="Shape" stroke="#FFFFFF" stroke-width="0.75" stroke-linecap="round" stroke-linejoin="round"></path>
                <path d="M447.36,433.86 C446.49,434.86 445.47,436.34 445.92,437.25" id="Shape" stroke="#FFFFFF" stroke-width="0.75" stroke-linecap="round" stroke-linejoin="round"></path>
                <path d="M74.44,110.79 C71.71,113.2 60.23,111.68 59.9,110.79 C58.61,107.39 58.9,97.25 59.9,96.25 C62.47,93.68 73.29,95.64 74.44,96.25 C76.33,97.25 75.33,110 74.44,110.79 Z" id="Shape" fill="#ED462F" fill-rule="nonzero"></path>
                <path d="M88.61,110.79 C91.18,113.2 101.97,111.68 102.29,110.79 C103.5,107.39 103.23,97.25 102.29,96.25 C99.87,93.68 89.7,95.64 88.61,96.25 C86.82,97.25 87.77,110 88.61,110.79 Z" id="Shape" fill="#FFFFFF" fill-rule="nonzero"></path>
                <path d="M198.49,110.93 C195.71,113.38 184.01,111.84 183.67,110.93 C182.36,107.47 182.67,97.13 183.67,96.11 C186.29,93.49 197.31,95.49 198.49,96.11 C200.42,97.13 199.39,110.13 198.49,110.93 Z" id="Shape" fill="#FFFFFF" fill-rule="nonzero"></path>
                <path d="M166.54,110.93 C163.76,113.38 152.06,111.84 151.72,110.93 C150.41,107.47 150.72,97.13 151.72,96.11 C154.34,93.49 165.36,95.49 166.54,96.11 C168.47,97.13 167.45,110.13 166.54,110.93 Z" id="Shape" fill="#FEBC01" fill-rule="nonzero"></path>
                <path d="M272.08,108.13 C269.67,110.26 259.51,108.92 259.22,108.13 C258.08,105.13 258.33,96.13 259.22,95.27 C261.49,92.99 271.06,94.73 272.08,95.27 C273.76,96.15 272.87,107.43 272.08,108.13 Z" id="Shape" fill="#ED462F" fill-rule="nonzero"></path>
                <path d="M297.2,108.13 C294.79,110.26 284.63,108.92 284.34,108.13 C283.2,105.13 283.45,96.13 284.34,95.27 C286.61,92.99 296.18,94.73 297.2,95.27 C298.88,96.15 298,107.43 297.2,108.13 Z" id="Shape" fill="#FEBC01" fill-rule="nonzero"></path>
                <path d="M111.12,215.11 C108.06,217.81 95.2,216.11 94.82,215.11 C93.38,211.3 93.7,199.94 94.82,198.81 C97.7,195.93 109.82,198.12 111.12,198.81 C113.25,199.94 112.12,214.23 111.12,215.11 Z" id="Shape" fill="#FFFFFF" fill-rule="nonzero"></path>
                <path d="M76.29,215.82 C73.23,218.52 60.37,216.82 59.99,215.82 C58.55,212.01 58.87,200.65 59.99,199.53 C62.87,196.65 74.99,198.84 76.29,199.53 C78.42,200.66 77.29,214.94 76.29,215.82 Z" id="Shape" fill="#FEBC01" fill-rule="nonzero"></path>
                <path d="M99.87,343.79 C96.97,346.35 84.78,344.74 84.42,343.79 C83.05,340.18 83.35,329.41 84.42,328.35 C87.15,325.62 98.64,327.7 99.87,328.35 C101.88,329.41 100.81,343 99.87,343.79 Z" id="Shape" fill="#FFFFFF" fill-rule="nonzero"></path>
                <path d="M70,343.79 C67.1,346.35 54.91,344.74 54.55,343.79 C53.18,340.18 53.48,329.42 54.55,328.35 C57.28,325.62 68.77,327.7 70,328.35 C72,329.42 70.92,343 70,343.79 Z" id="Shape" fill="#ED462F" fill-rule="nonzero"></path>
                <path d="M350.66,348.42 C347.55,351.67 333.24,351 332.74,349.94 C330.8,345.89 330.09,333.36 331.22,332.02 C334.12,328.58 347.66,329.86 349.14,330.5 C351.58,331.54 351.67,347.35 350.66,348.42 Z" id="Shape" fill="#FEBC01" fill-rule="nonzero"></path>
                <path d="M380.56,345.66 C377.45,348.91 363.14,348.24 362.64,347.18 C360.7,343.12 359.99,330.6 361.12,329.26 C364.02,325.82 377.55,327.1 379.04,327.74 C381.49,328.78 381.58,344.6 380.56,345.66 Z" id="Shape" fill="#FFFFFF" fill-rule="nonzero"></path>
                <path d="M178.58,216.12 C175.41,218.91 162.09,217.12 161.7,216.12 C160.2,212.17 160.53,200.4 161.7,199.24 C164.7,196.24 177.24,198.53 178.58,199.24 C180.78,200.4 179.62,215.2 178.58,216.12 Z" id="Shape" fill="#ED462F" fill-rule="nonzero"></path>
                <path d="M207.9,216.12 C204.73,218.91 191.41,217.12 191.02,216.12 C189.52,212.17 189.85,200.4 191.02,199.24 C194.02,196.24 206.56,198.53 207.9,199.24 C210.1,200.4 208.93,215.2 207.9,216.12 Z" id="Shape" fill="#FEBC01" fill-rule="nonzero"></path>
                <path d="M294.41,214.51 C291.58,217.01 279.67,215.43 279.32,214.51 C277.98,210.98 278.32,200.51 279.32,199.42 C281.99,196.75 293.21,198.79 294.41,199.42 C296.38,200.46 295.33,213.69 294.41,214.51 Z" id="Shape" fill="#ED462F" fill-rule="nonzero"></path>
                <path d="M265.89,214.51 C263.06,217.01 251.15,215.43 250.8,214.51 C249.46,210.98 249.8,200.51 250.8,199.42 C253.47,196.75 264.69,198.78 265.89,199.42 C267.85,200.46 266.81,213.69 265.89,214.51 Z" id="Shape" fill="#FFFFFF" fill-rule="nonzero"></path>
                <path d="M333.58,210.55 C333.58,209.43 333.58,210.55 333.68,209.67" id="Shape" stroke="#F9C332" stroke-width="3" stroke-linecap="round" stroke-linejoin="round"></path>
                <path d="M333.67,233 C333.67,229.06 333.33,221.86 333.38,215.89" id="Shape" stroke="#F9C332" stroke-width="3" stroke-linecap="round" stroke-linejoin="round"></path>
                <path d="M347.67,234 C353.34,221.67 352.34,223 358.67,212.67" id="Shape" stroke="#F9C332" stroke-width="3" stroke-linecap="round" stroke-linejoin="round"></path>
                <path d="M361.67,240 C370.67,234 370.5,234.33 378,229.33" id="Shape" stroke="#F9C332" stroke-width="3" stroke-linecap="round" stroke-linejoin="round"></path>
                <path d="M432.58,267.56 C432.58,267.56 427.9,251.56 434.75,251.39 C441.25,251.22 440.08,265.68 440.08,265.68" id="Shape" stroke="#33288E" stroke-width="0.75" stroke-linecap="round" stroke-linejoin="round"></path>
                <ellipse id="Oval" stroke="#33288E" stroke-width="0.75" cx="432.76" cy="268.89" rx="1.06" ry="1.25"></ellipse>
                <ellipse id="Oval" stroke="#33288E" stroke-width="0.75" cx="458.83" cy="280.41" rx="1.06" ry="1.25"></ellipse>
                <ellipse id="Oval" stroke="#33288E" stroke-width="0.75" cx="440.24" cy="266.83" rx="1.08" ry="1.1"></ellipse>
                <path d="M461.47,280.64 C461.47,282.098032 460.288032,283.28 458.83,283.28 C457.371968,283.28 456.19,282.098032 456.19,280.64 C456.19,278.85 457.37,277.39 458.83,277.39 C460.29,277.39 461.47,278.84 461.47,280.64 Z" id="Shape" stroke="#33288E" stroke-width="0.75" stroke-linecap="round" stroke-linejoin="round"></path>
                <path d="M434.74,251.39 C434.74,251.39 432.74,248.31 436.2,237.81 C438.060053,231.951478 442.117247,227.04127 447.52,224.11" id="Shape" stroke="#33288E" stroke-width="0.75" stroke-linecap="round" stroke-linejoin="round"></path>
                <path d="M464.33,221.43 C464.33,221.43 469.77,221.76 470.93,226.08 C472.09,230.4 469.58,235.31 469.58,235.31" id="Shape" stroke="#33288E" stroke-width="0.75" stroke-linecap="round" stroke-linejoin="round"></path>
                <path d="M458.58,273.18 C458.361205,274.504357 458.361205,275.855643 458.58,277.18" id="Shape" stroke="#33288E" stroke-width="0.75" stroke-linecap="round" stroke-linejoin="round"></path>
                <path d="M56.24,53.06 C50.87,53.06 47.97,55.78 46.91,60.73 C45.91,65.19 42.54,78.31 47.2,142.31" id="Shape" stroke="#FFFFFF" stroke-width="3" stroke-linecap="round" stroke-linejoin="round"></path>
                <path d="M169.48,321.81 C169.33,335.42 169.25,368.4 171.57,392.06" id="Shape" stroke="#FFFFFF" stroke-width="3" stroke-linecap="round" stroke-linejoin="round"></path>
                <path d="M0.58,403.06 C0.25,403.14 1.17,402.89 0.58,403.06" id="Shape" stroke="#F9C332" stroke-width="3" stroke-linecap="round" stroke-linejoin="round"></path>
                <path d="M20.58,397.06 C15.26,398.58 10.53,400.06 5.49,401.62" id="Shape" stroke="#F9C332" stroke-width="3" stroke-linecap="round" stroke-linejoin="round"></path>
                <path d="M21.58,387.06 C16.91,386.39 11.91,386.06 7.25,385.06" id="Shape" stroke="#F9C332" stroke-width="3" stroke-linecap="round" stroke-linejoin="round"></path>
                <path d="M28,401.61 C26.91,404.36 24.79,407.25 22.81,411.11" id="Shape" stroke="#F9C332" stroke-width="3" stroke-linecap="round" stroke-linejoin="round"></path>
                <path d="M299.62,274.83 C297.97,275.13 297.44,276.26 297.79,279.39 C298.37,284.66 301.51,310 301.51,310" id="Shape" stroke="#FFFFFF" stroke-width="3" stroke-linecap="round" stroke-linejoin="round"></path>
                <path d="M134.88,47.45 C134.714111,53.7997636 135.048478,60.1527317 135.88,66.45 C136.21,69.78 136.42,75.02 136.58,78.45 C136.7,81.03 134.47,81.59 132.83,81.45 C129.007059,81.2990591 125.212167,82.1615347 121.83,83.95 C116.83,86.28 114.75,91.06 112.75,96.06 C108.42,110.06 116.87,132.06 134.87,125.75 C137.87,137.42 139.87,153.42 135.54,164.75" id="Shape" stroke="#ED462F" stroke-width="2" stroke-linecap="round" stroke-linejoin="round"></path>
                <path d="M133.59,263.42 C133.424111,269.769764 133.758478,276.122732 134.59,282.42 C134.92,285.75 136.8,305.42 136.97,308.87 C137.09,311.45 132.62,311.33 130.97,311.19 C127.38,310.88 120.97,311.07 117.66,312.74 C112.66,315.07 109.46,319.07 107.46,324.07 C103.13,338.07 113.71,359.63 130.97,350.26 C141.56,344.51 136.97,386.71 132.68,398.04" id="Shape" stroke="#ED462F" stroke-width="2" stroke-linecap="round" stroke-linejoin="round"></path>
                <path d="M41.22,156.32 C46.15,158.04 132.58,161.93 139.72,161.26 C154.5,159.88 160.22,161.26 162.62,159.75 C163.954321,159.154334 164.715648,157.730447 164.47,156.29 C164.24,152.82 161.96,148.29 163.17,145.08 C164.87,140.25 168.34,138.24 171.97,136.31 C182.15,132.12 194.48,141.42 189.87,158.82 C198.36,161.72 207.79,158.23 219.34,157.51" id="Shape" stroke="#ED462F" stroke-width="2" stroke-linecap="round" stroke-linejoin="round"></path>
                <path d="M218.92,47.21 C218.92,53.7 219.92,59.12 219.71,66.21 C219.59,69.57 219.37,75.04 219.9,78.54 C221.22,87.24 230.5,81.8 234.9,81.54 C239.9,81.24 244.26,84.11 245.8,91.87 C250.42,115.06 236.61,131.23 222.65,119.56 C214.27,112.56 216.65,136.86 218.93,152.84 C222.65,178.84 219.93,264.84 219.93,266.52" id="Shape" stroke="#ED462F" stroke-width="2" stroke-linecap="round" stroke-linejoin="round"></path>
                <path d="M135.55,164.79 C135.29,168.98 133.32,172.15 132.71,176.97 C132.33,180.05 130.93,186.1 130.89,189.38 C130.81,196.12 135.7,194.38 139.73,194.16 C144.34,193.88 152.1,192.02 152.67,205.26 C153.4,222.26 141.55,228.8 134.4,222.35 C126,214.78 132.6,248.03 133.3,262.11" id="Shape" stroke="#ED462F" stroke-width="1.85" stroke-linecap="round" stroke-linejoin="round"></path>
                <path d="M218.52,157.34 C224.32,157.09 226.18,157.83 233.52,158.4 C236.52,158.63 251.37,159.99 254.52,160.09 C267.23,160.51 267.43,156.61 264.81,153.09 C261.21,148.29 260.21,135.28 270.51,133.31 C291.45,129.31 296.16,135.6 292.51,151.31 C289.32,165.11 302.38,159.1 315.94,157.77" id="Shape" stroke="#ED462F" stroke-width="1.89" stroke-linecap="round" stroke-linejoin="round"></path>
                <path d="M38.95,264.53 C40.22,264.6 46.63,263.53 53.95,263.39 C56.95,263.39 59.85,263.9 63.03,263.99 C75.74,264.33 75.73,268.1 72.93,271.31 C69.08,275.72 66.22,290.5 76.4,293.01 C97.09,298.1 108.97,288.13 97.24,268.12 C90.83,257.19 115.61,261.25 130.02,263.57 C131.19,263.76 198.72,259.38 219.93,266.57" id="Shape" stroke="#ED462F" stroke-width="1.86" stroke-linecap="round" stroke-linejoin="round"></path>
                <path d="M454.94,178.44 C452.46,178.44 449.73,179.9 445.94,180.11 C442.15,180.32 438.94,178.86 436.94,179.56 C434.74,180.35 434.23,181.37 434.23,183.87 C434.248983,185.95312 435.585615,187.795505 437.56,188.46 C439.88,188.8 440.72,187.82 443.87,187.7 C449.37,187.49 453.52,190.86 454.36,193.26 C454.961536,195.800667 455.409018,198.375358 455.7,200.97 C455.937319,201.817204 456.700416,202.409822 457.58,202.43 C459.04,202.43 459.46,199.09 460.5,199.09 C461.54,199.09 464.05,199.09 464.25,202.43 C464.45,205.77 463.8,206.3 462.17,207.27 C460.37,208.34 459.46,207.55 459.46,207.55 L459.52,212.44 C459.52,212.44 459.25,215.57 462.8,215.36 C464.802535,215.329167 466.530339,213.946924 467,212 C467.7018,208.635688 468.678408,205.334617 469.92,202.13 C471.21,199.31 472.63,196.78 472.84,193.65 C473.05,190.52 470.54,187.39 470.54,187.39 C470.54,187.39 471.72,186.49 470.82,184.54 C470.364829,183.44829 469.197157,182.835052 468.04,183.08 C468.04,183.08 469.04,180.92 467.46,179.55 C465.88,178.18 462.62,178.84 461.46,180.37 C460.3,181.9 460.45,178.44 454.94,178.44 Z" id="Shape" fill="#FF7800" fill-rule="nonzero"></path>
                <path d="M438.61,181 C436.34,180.31 433.84,183.14 437.76,187.14" id="Shape" stroke="#FFFFFF" stroke-width="0.75" stroke-linecap="round" stroke-linejoin="round"></path>
                <path d="M440.26,180.91 C440.13,180.91 440.35,180.91 440.09,180.91" id="Shape" stroke="#FFFFFF" stroke-width="0.75" stroke-linecap="round" stroke-linejoin="round"></path>
                <path d="M479,234.68 C476.75,233.34 473.08,234.01 470.91,235.01 C469.019923,236.075645 467.28675,237.398241 465.76,238.94 C460.745555,244.355228 456.230541,250.212363 452.27,256.44 C449.243887,260.803769 445.564139,264.675767 441.36,267.92 C435.19,272.62 426.36,276.61 419.36,280.11" id="Shape" stroke="#309FF2" stroke-width="0.75" stroke-linecap="round" stroke-linejoin="round"></path>
                <path d="M481.58,243.71 C479.87,247.45 478.92,251.83 473.71,258.24 C470.57,262.1 462.82,269.1 459.88,271.58 C453.64016,276.998406 447.078168,282.034276 440.23,286.66 C436.431029,289.03906 432.41263,291.048259 428.23,292.66 C424.95,293.99 414.23,298.14 412.58,299.14" id="Shape" stroke="#309FF2" stroke-width="0.75" stroke-linecap="round" stroke-linejoin="round"></path>
                <path d="M446.72,282.75 C445.49,295.32 445.25,325.75 444.54,336.25 C444.227898,341.788431 444.20787,347.339461 444.48,352.88 C427.06,352.26 424.23,350.71 419.27,345.88" id="Shape" stroke="#309FF2" stroke-width="0.75" stroke-linecap="round" stroke-linejoin="round"></path>
                <path d="M457.28,285.75 C458.45,298.32 455.51,321.75 456.19,332.28 C456.51,337.17 456.08,348.05 457.77,350.81 C460.12,354.65 477.39,351.12 485.06,349.07" id="Shape" stroke="#309FF2" stroke-width="0.73" stroke-linecap="round" stroke-linejoin="round"></path>
                <path d="M430.41,251.84 C424.57,256.48 420.41,259.47 405.41,263.78 C398.87,265.66 385.41,268.78 378.73,268.78" id="Shape" stroke="#309FF2" stroke-width="0.75" stroke-linecap="round" stroke-linejoin="round"></path>
                <path d="M457,306 C454.88,306 447.62,305.67 445.62,305" id="Shape" stroke="#309FF2" stroke-width="0.73" stroke-linecap="round" stroke-linejoin="round"></path>
                <path d="M449.72,314.74 C450.81,344.46 453.81,360.29 452.03,403.95 C451.71,411.69 449.73,421.75 449.73,429.5" id="Shape" stroke="#309FF2" stroke-width="0.73" stroke-linecap="round" stroke-linejoin="round"></path>
                <path d="M446.84,312.62 C448.84,314.87 451.34,315.5 453.84,316.75" id="Shape" stroke="#309FF2" stroke-width="0.73" stroke-linecap="round" stroke-linejoin="round"></path>
                <path d="M450,429.12 C454.25,429.12 454.48,428.38 458.11,430.75 C459.99,431.88 463,436.12 465.25,436.62 C468.63,437.5 475.36,436.84 478.25,434.71" id="Shape" stroke="#309FF2" stroke-width="0.73" stroke-linecap="round" stroke-linejoin="round"></path>
                <path d="M432.79,387.85 C432.52,392.01 432.35,396.78 432.26,402.95 C432.14,410.87 431.73,418.7 431.73,418.7" id="Shape" stroke="#FFFFFF" stroke-width="0.75" stroke-linecap="round" stroke-linejoin="round"></path>
                <path d="M429.72,426.75 C433.47,426.75 435.19,424.89 436.83,425.21 C441.59,426.13 441.69,431.28 443.94,432.4" id="Shape" stroke="#309FF2" stroke-width="0.73" stroke-linecap="round" stroke-linejoin="round"></path>
            </g>
        </g>
    </g>
</svg>